<svg class="icon" viewBox="0 0 1024 1024" xmlns="http://www.w3.org/2000/svg" width="200" height="200"><path d="M740.01 532.48H283.99c-11.606 0-20.48-8.875-20.48-20.48s8.874-20.48 20.48-20.48h456.02c11.606 0 20.48 8.875 20.48 20.48s-8.874 20.48-20.48 20.48z"/><path d="M512 760.49c-11.605 0-20.48-8.874-20.48-20.48V283.99c0-11.606 8.875-20.48 20.48-20.48s20.48 8.874 20.48 20.48v456.02c0 11.606-8.875 20.48-20.48 20.48z"/><path d="M826.027 884.736H197.973c-32.768 0-59.392-26.624-59.392-59.392v-627.37c0-32.769 26.624-59.393 59.392-59.393h628.054c32.768 0 59.392 26.624 59.392 59.392v628.054c-1.366 33.45-27.307 58.709-59.392 58.709zM197.973 179.541c-9.557 0-18.432 8.875-18.432 18.432v627.371c0 9.557 8.875 18.432 18.432 18.432h628.054a18.355 18.355 0 0 0 18.432-18.432v-627.37c0-9.558-8.875-18.433-18.432-18.433H197.973z"/></svg>