<svg class="icon" viewBox="0 0 1024 1024" xmlns="http://www.w3.org/2000/svg" width="200" height="200"><path d="M832.1 98.6H192.2c-40.5 0-73.5 32.2-73.5 71.7v715.5c0 39.5 33 71.7 73.5 71.7h363.9c13.3 0 24-10.7 24-24s-10.7-24-24-24H192.2c-14.1 0-25.5-10.6-25.5-23.7V170.3c0-13.1 11.5-23.7 25.5-23.7H832c14.1 0 25.5 10.6 25.5 23.7v298.3c0 13.3 10.7 24 24 24s24-10.7 24-24V170.3c.1-39.5-32.9-71.7-73.4-71.7z"/><path d="M761.6 232.6H260.7c-13.3 0-24 10.7-24 24s10.7 24 24 24h500.9c13.3 0 24-10.7 24-24s-10.8-24-24-24zm0 170H260.7c-13.3 0-24 10.7-24 24s10.7 24 24 24h500.9c13.3 0 24-10.7 24-24s-10.8-24-24-24zm-182 194c0-13.3-10.7-24-24-24H260.7c-13.3 0-24 10.7-24 24s10.7 24 24 24h294.9c13.2 0 24-10.7 24-24zM260.7 744.3c-13.3 0-24 10.7-24 24s10.7 24 24 24h284.4c13.3 0 24-10.7 24-24s-10.7-24-24-24H260.7zm688.2 135.9L873.8 710l-.1.1c15.9-22.9 24.9-51 24-81-2.2-73.3-62.3-131.3-135.1-131.3v36c25.9 0 50.4 9.9 69 28 18.7 18.1 29.4 42.4 30.1 68.3.8 26.5-8.8 51.7-27 71-18.2 19.3-42.8 30.4-69.3 31.1h-3c-25.9 0-50.4-9.9-69-28-18.7-17.9-29.4-42.2-30.2-68.2-1.6-54.7 41.6-100.6 96.3-102.2h3v-36c-1.4 0-2.7 0-4.1.1-74.7 2.2-133.4 64.6-131.2 139.2.8 26.1 8.9 50.3 22.3 70.6L576 874.4c-2.4 5.4-1.4 11.7 2.5 16 3.9 4.4 10 6.1 15.7 4.3l54.9-17.2 24.3 52.1c2.5 5.3 7.8 8.7 13.6 8.7h.2c5.9-.1 11.2-3.6 13.6-8.9l60.5-137.1 63 142.9c2.4 5.4 7.7 8.9 13.6 8.9h.2c5.8 0 11.1-3.4 13.6-8.7l24.3-52.1 54.9 17.2c5.6 1.8 11.7.1 15.7-4.3 3.7-4.4 4.7-10.7 2.3-16zM686.6 887l-15.9-34c-3.2-6.8-10.9-10.2-18.1-8l-35.8 11.2 54.4-123.3c18.8 17.2 42.5 29.1 68.6 33.5L686.6 887zm185.7-36.2c-7.2-2.2-14.9 1.2-18.1 8l-15.9 34-55.6-126c26.4-4 50.1-15.5 69.1-32.2L908.1 862l-35.8-11.2z"/></svg>