<svg class="icon" viewBox="0 0 1024 1024" xmlns="http://www.w3.org/2000/svg" width="256" height="256"><defs><style/></defs><path d="M835.883 237.653c-35.435-2.09-105.344-9.685-175.574-37.12a593.557 593.557 0 0 1-118.592-63.232 52.33 52.33 0 0 0-59.413 0 592.619 592.619 0 0 1-118.613 63.232c-70.208 27.435-140.118 35.051-175.531 37.12a41.024 41.024 0 0 0-38.827 40.832v229.099c0 67.008 16.768 133.141 48.491 191.317 13.056 23.936 31.381 55.211 57.195 84.63C380.416 926.4 506.688 928.043 512.107 928.043c5.312-.022 131.968-2.219 256.874-144.512 25.814-29.419 44.118-60.694 57.195-84.651a400.448 400.448 0 0 0 48.49-191.296V278.485c0-21.674-17.066-39.616-38.783-40.832zM832 507.584c0 59.883-14.976 118.955-43.285 170.859-12.758 23.402-28.886 50.837-51.819 76.928-111.424 126.933-223.979 129.984-224.79 130.005-1.13-.021-113.194-2.581-225.002-129.984-22.912-26.133-39.061-53.568-51.819-76.928A357.867 357.867 0 0 1 192 507.584V280.149c38.357-2.325 112.448-10.666 187.221-39.872a636.736 636.736 0 0 0 127.403-67.946 9.515 9.515 0 0 1 10.752 0 637.867 637.867 0 0 0 127.403 67.946C719.552 269.483 793.6 277.803 832 280.15v227.435z"/><path d="M373.995 506.539a21.29 21.29 0 0 0-30.08 2.41 21.333 21.333 0 0 0 2.41 30.08l131.371 111.915a21.29 21.29 0 0 0 30.08-2.41l188.736-221.547a21.333 21.333 0 1 0-32.49-27.67L489.13 604.63l-115.136-98.09z"/></svg>