<svg class="icon" viewBox="0 0 1053 1024" xmlns="http://www.w3.org/2000/svg" width="200" height="200"><path d="M526.635 58.067a21.504 21.504 0 0 1-27.502.176l474.98 381.505a31.539 31.539 0 1 0 39.496-49.151L538.629 9.004a41.603 41.603 0 0 0-51.988.234L11.574 398.672a31.539 31.539 0 1 0 39.994 48.8L526.635 58.066z"/><path d="M1013.609 564.088l-474.98-381.505a41.603 41.603 0 0 0-51.988.205L11.574 572.192a31.539 31.539 0 1 0 39.994 48.8l66.763-54.71v361.61a94.645 94.645 0 0 0 94.674 94.645h228.727V775.261a15.799 15.799 0 0 1 15.74-15.798h110.473c8.689 0 15.769 7.08 15.769 15.798v247.276h228.727a94.616 94.616 0 0 0 94.645-94.615V559.465l66.997 53.832a31.539 31.539 0 1 0 39.526-49.21zm-169.63 363.804c0 17.437-14.1 31.539-31.567 31.539H646.82V775.232a78.876 78.876 0 0 0-78.875-78.905H457.472a78.876 78.876 0 0 0-78.846 78.905v184.199H213.034c-17.466 0-31.597-14.131-31.597-31.539V514.527l331.447-271.676L843.98 508.793v419.129z"/></svg>