<svg class="icon" viewBox="0 0 1024 1024" xmlns="http://www.w3.org/2000/svg" width="32" height="32"><path d="M660.105 613.55a294.712 294.712 0 0 0 143.16-213.44h15.136a32.718 32.718 0 1 0 0-65.462h-12.988c-9.99-119.983-91.66-221.284-207.122-256.5a94.982 94.982 0 0 0-86.166-55.37c-38.213 0-71.056 22.852-86.191 55.496a293.139 293.139 0 0 0-207.223 256.374h-12.987a32.718 32.718 0 1 0 0 65.436h15.135a294.462 294.462 0 0 0 143.036 213.467A449.012 449.012 0 0 0 67.06 963.834a32.693 32.693 0 1 0 64.512 10.84A384.724 384.724 0 0 1 512 653.811a384.624 384.624 0 0 1 380.428 320.861c2.998 17.833 20.306 29.621 37.689 26.849a32.693 32.693 0 0 0 26.823-37.688A449.012 449.012 0 0 0 660.105 613.55zm79.298-278.877h-132.32V151.227a227.703 227.703 0 0 1 132.32 183.421zM512 88.24c16.31 0 29.621 13.312 29.621 29.62v216.79H482.28V117.86A29.846 29.846 0 0 1 512 88.24zm-95.082 62.988v183.446h-132.32a228.027 228.027 0 0 1 132.32-183.42zM286.845 400.11h450.31C717.924 507.005 624.365 588.45 512 588.45s-205.949-81.445-225.155-188.34z"/><path d="M524.313 832.487c-57.194 0-113.29-116.162-162.167-182.996v209.995h324.359v-210.12c-48.828 66.885-104.973 183.121-162.192 183.121"/></svg>