<svg class="icon" viewBox="0 0 1024 1024" xmlns="http://www.w3.org/2000/svg" width="32" height="32"><path d="M734.623 475.81a78.842 78.842 0 0 0-26.187 4.468c-9.5-33.119-40.043-57.43-76.176-57.43a78.856 78.856 0 0 0-27.699 5.005c-10.943-30.679-40.275-52.704-74.662-52.704a78.988 78.988 0 0 0-23.11 3.446v-97.667c0-43.698-35.555-79.253-79.252-79.253s-79.253 35.555-79.253 79.253v238.288a257.782 257.782 0 0 1-3.427-6.122c-15.982-29.62-38.516-40.299-54.608-44.054-43.998-10.13-86.956 19.066-91.726 22.424-10.335 7.36-14.447 20.752-10.033 32.65l81.254 218.924a28.14 28.14 0 0 0 3.234 6.209l137.26 198.309a28.081 28.081 0 0 0 23.083 12.089h270.407c11.815 0 22.37-7.389 26.398-18.49l82.076-226.08a28.532 28.532 0 0 0 1.672-9.582v-150.43c.002-43.697-35.553-79.252-79.25-79.252zm23.11 224.75l-73.689 202.943H448.042L321.145 720.189l-71.467-192.594c8.8-3.427 19.19-5.894 27.852-3.865 4.55 1.055 11.377 3.878 17.928 16.022 18.746 34.71 40.477 59.278 52.827 71.754v42.944c0 15.503 12.555 28.072 28.072 28.072 15.516 0 28.072-12.57 28.072-28.072V280.926c0-12.747 10.362-23.11 23.109-23.11 12.747 0 23.11 10.363 23.11 23.11v220.42c0 15.502 12.555 28.071 28.072 28.071 15.516 0 28.071-12.569 28.071-28.072V454.4c0-12.747 10.362-23.109 23.11-23.109 12.747 0 23.109 10.363 23.109 23.11l.009 47.316c0 .124-.01.246-.01.37v46.946c0 15.503 12.557 28.072 28.073 28.072s28.071-12.57 28.071-28.072v-46.946c0-12.733 10.363-23.096 23.11-23.096 12.748 0 23.11 10.363 23.11 23.096v99.923c0 15.502 12.556 28.072 28.071 28.072 15.516 0 28.072-12.57 28.072-28.072v-46.946c0-12.748 10.363-23.11 23.11-23.11s23.109 10.363 23.109 23.11V700.56z"/><path d="M319.966 308.656c-11.706-19.38-17.874-41.723-17.874-64.586 0-69.178 56.28-125.458 125.445-125.458 69.192 0 125.472 56.28 125.472 125.458 0 20.848-5.209 41.463-15.023 59.624l49.344 26.728c14.282-26.33 21.821-56.198 21.821-86.352 0-100.142-81.472-181.602-181.614-181.602-100.115 0-181.587 81.46-181.587 181.602 0 33.088 8.964 65.45 25.933 93.589l48.083-29.003z"/></svg>