<svg class="icon" viewBox="0 0 1122 1024" xmlns="http://www.w3.org/2000/svg" width="200" height="200"><path d="M715.034 561.434c-1.765 0-5.296 0-7.062-1.765-5.296-1.766-10.593-8.828-10.593-15.89l-1.765-118.29H377.82a15.824 15.824 0 0 1-15.89-15.889V291.31c0-5.296 1.766-8.827 5.297-12.358 3.53-3.531 7.062-5.297 12.358-5.297l317.793 3.531v-105.93c0-7.063 3.531-12.36 8.828-15.89 5.296-3.532 12.359-1.766 17.655 1.765L941.02 335.448c3.53 3.531 5.296 7.062 5.296 12.359 0 5.296-1.765 8.827-5.296 12.359L725.628 554.372c-3.531 5.297-7.062 7.062-10.594 7.062zM395.476 393.71h317.793c8.828 0 15.89 7.062 15.89 15.89v97.103l173.02-157.13L727.393 204.8v90.041c0 5.297-1.765 8.828-5.296 12.359-3.531 3.531-7.063 3.531-12.36 5.297l-317.792-3.531v84.744zm-75.917 35.31H208.33a15.824 15.824 0 0 1-15.89-15.889v-121.82c0-8.828 7.062-15.89 15.89-15.89h111.228c8.827 0 15.89 7.062 15.89 15.89v121.82c0 8.828-7.063 15.89-15.89 15.89zm-95.338-33.544h77.682V307.2h-77.682v88.276zM437.848 886.29c-3.53 0-7.062-1.766-10.593-3.531L210.097 704.44c-3.531-3.53-5.297-7.062-5.297-12.358 0-5.297 1.766-8.828 5.297-12.359L425.49 485.517c5.296-3.53 12.358-5.296 17.655-3.53 5.296 1.765 10.593 8.827 10.593 15.889l1.765 118.29h317.794c8.827 0 15.89 7.062 15.89 15.89v118.289c0 5.296-1.766 8.827-5.297 12.358-3.531 3.531-7.062 5.297-12.359 5.297l-317.793-3.531v107.697c0 7.062-3.531 12.358-8.828 15.89-1.765-1.766-5.296-1.766-7.062-1.766zM245.407 690.317L420.193 835.09v-90.042c0-5.296 1.766-8.827 5.297-12.358 3.53-3.531 7.062-5.297 12.358-5.297l317.793 3.531V646.18H437.848a15.824 15.824 0 0 1-15.89-15.89v-97.103l-176.55 157.13zm697.38 75.917H831.558a15.824 15.824 0 0 1-15.89-15.89V630.29c0-8.828 7.062-15.89 15.89-15.89h111.227c8.828 0 15.89 7.062 15.89 15.89v120.055c0 8.827-7.062 15.89-15.89 15.89zm-95.339-33.544h77.683v-86.51h-77.683v86.51z"/></svg>