<svg class="icon" viewBox="0 0 1024 1024" xmlns="http://www.w3.org/2000/svg" width="256" height="256"><path d="M674.88 391.04l257.664-256.768-.896 145.472c-.32 12.096 9.408 22.72 21.504 22.4h15.36c12.16-.384 22.208-7.488 22.4-19.712l.704-216.704.384-11.52c.192-6.016-1.28-11.52-5.12-15.424a20.736 20.736 0 0 0-15.488-6.208l-11.008.192c-.192 0-.32 0-.512.128l-214.912-.832a23.104 23.104 0 0 0-22.336 22.528v15.36a24.512 24.512 0 0 0 25.216 22.4l141.568.384-256.896 255.872a29.952 29.952 0 1 0 42.368 42.368zM350.144 632.96l-257.792 256 .896-144.768a21.504 21.504 0 0 0-21.504-22.4h-16.32c-12.032.384-22.144 7.488-22.4 19.712l-.64 216.832-.384 11.52c-.192 6.08 1.28 11.52 5.12 15.488 3.968 3.84 9.28 6.4 15.488 6.208l11.008-.192c.128 0 .32 0 .512-.192l215.808.896a23.104 23.104 0 0 0 22.336-22.528v-15.424a24.512 24.512 0 0 0-25.216-22.4l-141.568-.32L392.192 675.52a30.016 30.016 0 0 0 0-42.432 29.248 29.248 0 0 0-42.048 0zm641.472 325.248l-.512-216.832c-.384-12.032-10.304-19.328-22.4-19.712h-15.36c-12.16-.32-21.696 10.304-21.504 22.4l.896 145.472L674.88 632.96a30.016 30.016 0 1 0-42.368 42.432l256.704 255.872-141.568.32a24.768 24.768 0 0 0-25.216 22.4v15.36c.384 12.16 10.304 22.208 22.4 22.592l214.848-.896c.192 0 .384.192.512.192l11.008.192a20.352 20.352 0 0 0 15.488-6.208c3.84-3.904 5.312-9.408 5.12-15.488l-.192-11.52zM135.68 92.8l141.632-.384a24.768 24.768 0 0 0 25.216-22.4v-15.36A23.36 23.36 0 0 0 280.064 32l-215.936.896-.512-.128-11.008-.192a20.352 20.352 0 0 0-15.488 6.208c-3.84 3.84-5.312 9.408-5.12 15.424l.32 11.52.512 216.832c.192 12.096 10.304 19.392 22.4 19.712h16.32c12.032.384 21.632-10.24 21.44-22.4l-.704-144.768 257.664 256.064a29.952 29.952 0 1 0 42.368-42.432l-256.768-256z"/></svg>