<svg class="icon" viewBox="0 0 1024 1024" xmlns="http://www.w3.org/2000/svg" width="256" height="256"><defs><style/></defs><path d="M875.52 87.04H148.48c-33.792 0-61.44 27.648-61.44 61.44v727.04c0 33.792 27.648 61.44 61.44 61.44h271.36c11.315 0 20.48-9.165 20.48-20.48S431.155 896 419.84 896H148.48c-11.264 0-20.48-9.216-20.48-20.48V148.48c0-11.264 9.216-20.48 20.48-20.48h727.04c11.264 0 20.48 9.216 20.48 20.48V409.6c0 11.315 9.165 20.48 20.48 20.48s20.48-9.165 20.48-20.48V148.48c0-33.792-27.648-61.44-61.44-61.44z"/><path d="M916.48 896h-15.36V727.04c0-33.792-27.648-61.44-61.44-61.44h-10.24v-51.2c0-33.792-27.648-61.44-61.44-61.44H655.36c-33.792 0-61.44 27.648-61.44 61.44V896h-15.36c-11.264 0-20.48 9.216-20.48 20.48s9.216 20.48 20.48 20.48h337.92c11.264 0 20.48-9.216 20.48-20.48S927.744 896 916.48 896zm-250.88 0h-30.72V614.4c0-11.11 9.37-20.48 20.48-20.48H768c11.11 0 20.48 9.37 20.48 20.48V896H665.6zm163.84 0V706.56h10.24c11.11 0 20.48 9.37 20.48 20.48V896h-30.72zm-64-665.6H258.56c-11.264 0-20.48 9.216-20.48 20.48s9.216 20.48 20.48 20.48h506.88c11.264 0 20.48-9.216 20.48-20.48s-9.216-20.48-20.48-20.48zM261.12 404.48c-11.264 0-20.48 9.216-20.48 20.48s9.216 20.48 20.48 20.48H768c11.264 0 20.48-9.216 20.48-20.48s-9.216-20.48-20.48-20.48H261.12zM476.16 588.8H261.12c-11.264 0-20.48 9.216-20.48 20.48s9.216 20.48 20.48 20.48h215.04c11.264 0 20.48-9.216 20.48-20.48s-9.216-20.48-20.48-20.48z"/></svg>