<svg class="icon" viewBox="0 0 1024 1024" xmlns="http://www.w3.org/2000/svg" width="256" height="256"><path d="M909 959H662a30 30 0 0 1 0-60h223a14 14 0 0 0 14-14V662h.05a29.966 29.966 0 0 1 59.9 0h.05v247a50 50 0 0 1-50 50zm20-567a30 30 0 0 1-30-30V139a14 14 0 0 0-14-14H662a30 30 0 0 1 0-60h247a50 50 0 0 1 50 50v247a30 30 0 0 1-30 30zM362 124.95v.05H139a14 14 0 0 0-14 14v223a30 30 0 0 1-60 0V115a50 50 0 0 1 50-50h247v.05a29.965 29.965 0 0 1 0 59.9zM95 633a29.979 29.979 0 0 1 29.95 29h.05v223a14 14 0 0 0 14 14h223v.05a29.966 29.966 0 0 1 0 59.9v.05H115a50 50 0 0 1-50-50V662h.05A29.978 29.978 0 0 1 95 633zm542.257-285a49.88 49.88 0 0 1 16.24-32.111c.052-.047.106-.09.158-.137.556-.5 1.122-.987 1.7-1.46.212-.174.431-.337.645-.507.422-.334.845-.669 1.278-.99.286-.211.578-.411.867-.616.374-.265.746-.531 1.128-.786.318-.212.641-.413.963-.617.367-.234.734-.469 1.107-.693.322-.192.648-.374.972-.559.39-.221.78-.444 1.176-.655.3-.161.608-.313.913-.468.433-.219.866-.438 1.306-.646.266-.125.534-.242.8-.362.49-.22.981-.437 1.478-.642.219-.09.439-.173.658-.259.552-.218 1.106-.43 1.667-.629.167-.059.336-.113.5-.171.612-.209 1.227-.41 1.849-.6.121-.036.242-.068.363-.1a49.795 49.795 0 0 1 2.007-.542l.25-.058c.7-.169 1.414-.326 2.129-.465l.173-.031c.734-.14 1.472-.267 2.216-.374l.117-.015a49.563 49.563 0 0 1 14.156 0l.117.015c.744.107 1.482.234 2.216.374l.173.031c.715.139 1.424.3 2.129.465l.25.058c.675.166 1.343.349 2.007.542.121.035.242.067.363.1a43.79 43.79 0 0 1 1.849.6c.168.058.337.112.5.171.561.2 1.115.411 1.667.629.219.086.439.169.658.259.5.205.988.422 1.478.642.267.12.535.237.8.362.44.208.873.427 1.307.646.3.155.61.307.912.468.4.211.786.434 1.176.655.324.185.65.367.972.559.374.224.74.459 1.107.693.322.2.645.4.963.617.382.255.754.521 1.128.786.289.205.581.405.867.616.433.321.856.656 1.278.99.214.17.433.333.645.507.578.473 1.144.962 1.7 1.46.052.047.106.09.158.137q1 .906 1.956 1.864l98.891 98.892A49.844 49.844 0 0 1 836 452H212a30 30 0 0 1 0-60h425v-44h.257zM377.5 708.111c-.052.047-.106.09-.158.137-.556.5-1.122.987-1.7 1.46-.212.174-.431.337-.645.507-.422.334-.845.669-1.278.99-.286.211-.578.411-.867.616-.374.265-.746.531-1.128.786-.318.212-.641.413-.963.617-.367.234-.733.469-1.107.693-.322.192-.648.374-.972.559-.39.221-.78.444-1.176.655-.3.161-.608.313-.913.468-.433.219-.866.438-1.306.646-.266.125-.534.242-.8.362-.49.22-.981.437-1.478.642-.219.09-.439.173-.658.259-.552.218-1.106.43-1.667.629-.167.059-.336.113-.5.171-.612.209-1.227.41-1.849.6-.121.036-.242.068-.363.1-.664.193-1.332.376-2.007.542l-.25.058a50.35 50.35 0 0 1-2.129.465l-.173.031c-.734.14-1.472.267-2.216.374l-.117.015a49.563 49.563 0 0 1-14.156 0l-.117-.015a49.226 49.226 0 0 1-2.216-.374l-.173-.031c-.715-.139-1.424-.3-2.129-.465l-.25-.058a49.795 49.795 0 0 1-2.007-.542c-.121-.035-.242-.067-.363-.1a43.79 43.79 0 0 1-1.849-.6c-.168-.058-.337-.112-.5-.171-.561-.2-1.115-.411-1.667-.629-.219-.086-.439-.169-.658-.259-.5-.205-.988-.422-1.478-.642-.267-.12-.535-.237-.8-.362-.44-.208-.873-.427-1.306-.646-.305-.155-.611-.307-.913-.468-.4-.211-.786-.434-1.176-.655-.324-.185-.65-.367-.972-.559-.374-.224-.74-.459-1.107-.693-.322-.2-.645-.405-.963-.617-.382-.255-.754-.521-1.128-.786-.289-.205-.581-.4-.867-.616-.433-.321-.856-.656-1.278-.99-.214-.17-.433-.333-.645-.507a50.274 50.274 0 0 1-1.7-1.46c-.052-.047-.106-.09-.158-.137q-1-.906-1.956-1.864l-98.898-98.892A49.844 49.844 0 0 1 195.005 572H819a30 30 0 0 1 0 60H394v44h-.257a49.88 49.88 0 0 1-16.243 32.111z"/></svg>