<svg class="icon" viewBox="0 0 1024 1024" xmlns="http://www.w3.org/2000/svg" width="256" height="256"><path d="M524.8 537.6c-105.984 0-192-103.424-192-230.4s86.016-230.4 192-230.4 192 103.424 192 230.4-86.016 230.4-192 230.4zm0-409.6C447.232 128 384 208.384 384 307.2s63.232 179.2 140.8 179.2 140.8-80.384 140.8-179.2S602.368 128 524.8 128z"/><path d="M204.877 850.15l-45.056-24.32c6.656-12.288 163.84-297.728 371.456-297.728h1.28c115.456.768 220.16 89.088 311.552 262.4 4.352 7.936 11.264 21.76 18.176 36.352l-46.08 22.272c-6.656-13.824-13.312-26.88-17.152-34.56-81.92-155.392-171.52-234.496-266.496-235.008h-1.024c-177.664-.256-325.12 268.032-326.656 270.592z"/></svg>