<svg class="icon" viewBox="0 0 1024 1024" xmlns="http://www.w3.org/2000/svg" width="32" height="32"><path d="M759.666 559.264c-109.964 0-199.421 89.463-199.421 199.421s89.457 199.416 199.42 199.416c109.954 0 199.411-89.457 199.411-199.416s-89.457-199.42-199.41-199.42zM623.222 758.685c0-75.233 61.205-136.448 136.444-136.448 26.23 0 50.663 7.566 71.474 20.446L643.664 830.165c-12.87-20.817-20.442-45.25-20.442-71.48zM759.666 895.13c-26.218 0-50.653-7.566-71.464-20.437l187.466-187.48c12.87 20.817 20.441 45.25 20.441 71.473 0 75.234-61.205 136.444-136.443 136.444zM582.905 598.901c9.998 0 19.821-4.101 26.958-11.238 9.008-9.008 12.87-21.366 10.574-33.888-2.285-12.5-10.585-23.084-22.204-28.328a361.61 361.61 0 0 0-10.564-4.558C654.01 473.37 693.26 396.75 692.857 315.072c-.663-132.853-109.115-245.2-241.772-250.443a264.738 264.738 0 0 0-10.172-.196c-138.902 0-251.911 113.01-251.911 251.923 0 81.864 40.099 158.582 107.484 206.057-140.36 59.365-230.829 195.199-230.829 347.221 0 5.07 1.088 10.162 3.188 15.079 5.842 14.48 19.68 23.836 35.236 23.836 2.97 0 5.973-.348 8.932-1.023 16.927-3.906 28.861-20.06 29.003-39.283 1.284-165.066 136.694-299.475 301.77-299.638l5.375.163c6.918.163 13.827.457 20.909 1.12 3.416.218 6.897.664 11.706 1.273l3.699.49c2.937.282 5.853.728 9.04 1.36 6.396 1.099 12.64 2.175 18.048 3.546.805.261 1.61.468 3.873 1.034 17.146 4.188 34.313 10.226 51.022 17.928a36.74 36.74 0 0 0 15.447 3.382zm-141.98-106.656c-97.074 0-176.054-78.905-176.054-175.89 0-96.996 78.915-175.901 175.9-175.901s175.89 78.905 175.89 175.901c.002 96.985-78.838 175.89-175.737 175.89z"/></svg>