<svg class="icon" viewBox="0 0 1024 1024" xmlns="http://www.w3.org/2000/svg" width="200" height="200"><path d="M904 176H120c-30.9 0-56 25.1-56 56v560c0 30.9 25.1 56 56 56h784c30.9 0 56-25.1 56-56V232c0-30.9-25.1-56-56-56zm0 616H120V232h784v560z"/><path d="M232 736h168c30.9 0 56-25.1 56-56V512c0-30.9-25.1-56-56-56H232c-30.9 0-56 25.1-56 56v168c0 30.9 25.1 56 56 56zm0-224h168v168H232V512zm-28-140h616c15.5 0 28-12.5 28-28s-12.5-28-28-28H204c-15.5 0-28 12.5-28 28s12.5 28 28 28zm616 84H540c-15.5 0-28 12.5-28 28s12.5 28 28 28h280c15.5 0 28-12.5 28-28s-12.5-28-28-28zm0 112H540c-15.5 0-28 12.5-28 28s12.5 28 28 28h280c15.5 0 28-12.5 28-28s-12.5-28-28-28zm0 112H540c-15.5 0-28 12.5-28 28s12.5 28 28 28h280c15.5 0 28-12.5 28-28s-12.5-28-28-28z"/></svg>