<svg class="icon" viewBox="0 0 1279 1024" xmlns="http://www.w3.org/2000/svg" width="200" height="200"><path d="M808.577 477.032A264.38 264.38 0 0 0 913.52 267.145a274.235 274.235 0 0 0-548.266 0 263.638 263.638 0 0 0 104.944 209.887A445.882 445.882 0 0 0 182.755 890.33v89.305a44.742 44.742 0 0 0 45.561 44.357h821.63a44.793 44.793 0 0 0 45.561-44.357V890.33a443.86 443.86 0 0 0-286.93-413.298zM420.03 266.531a219.562 219.562 0 1 1 219.357 214.008A216.9 216.9 0 0 1 420.03 266.53zm619.422 704.503H239.578v-48.427a399.963 399.963 0 1 1 799.874 0v48.427zM240.09 496.23a32.02 32.02 0 0 0 24.06-31.227 31.406 31.406 0 0 0-15.613-27.004 167.193 167.193 0 0 1-63.222-130.155A170.188 170.188 0 0 1 328.908 141.7v-.69a23.292 23.292 0 0 0 17.661-22.807 24.751 24.751 0 0 0-24.828-24.214 5.836 5.836 0 0 0-3.583.691v-.69c-2.048 0-4.863.69-6.911.69a223.3 223.3 0 0 0-174.82 216.645 218.692 218.692 0 0 0 59.638 149.48A353.762 353.762 0 0 0 .256 776.556v52.625h.512c0 1.408-.768 2.816-.768 4.224a27.004 27.004 0 0 0 54.007 0 8.267 8.267 0 0 0-.767-4.224 351.791 351.791 0 0 1-2.048-36.653A331.852 331.852 0 0 1 240.09 496.229zm1038.685 280.48a352.866 352.866 0 0 0-196.066-315.751 218.078 218.078 0 0 0 59.64-149.634A223.35 223.35 0 0 0 973.414 96.778a28.36 28.36 0 0 0-7.167-1.407 25.238 25.238 0 0 0-25.596 24.93 24.188 24.188 0 0 0 16.381 22.806 169.548 169.548 0 0 1 132.843 164.019 164.787 164.787 0 0 1-66.037 132.28 31.713 31.713 0 0 0-12.798 24.905 32.404 32.404 0 0 0 28.411 31.918 330.188 330.188 0 0 1 186.85 295.582 341.553 341.553 0 0 1-2.047 36.68v2.79a27.362 27.362 0 0 0 27.644 27.029 26.901 26.901 0 0 0 27.643-27.03v-54.775z"/></svg>