<svg class="icon" viewBox="0 0 1024 1024" xmlns="http://www.w3.org/2000/svg" width="200" height="200"><path d="M981.1 504.9c-1.8-122.6-50.6-237.9-137.4-324.6C757 93.5 641.7 44.7 519.1 42.9c-2.4 0-4.8-.1-7.2-.1-63.3 0-124.8 12.4-182.6 36.7-55.9 23.6-106 57.3-149.1 100.3-43.1 43-76.9 93.1-100.5 149-24.5 57.9-36.9 119.4-36.9 183-.1 100.6 31.3 196.5 90.5 277.4 9.7 13.3 25.4 21.2 41.8 21.2 13.9 0 27-5.4 36.8-15.2 18.3-18.3 20.4-46.7 5.1-67.6-16.6-22.7-30.6-47.4-41.6-73.4-19-45-28.7-92.8-28.7-142.1s9.6-97.2 28.7-142.1c18.4-43.5 44.7-82.5 78.3-116.1 33.6-33.6 72.6-59.9 116.1-78.3 45-19 92.8-28.7 142.1-28.7s97.2 9.6 142.1 28.7c43.5 18.4 82.5 44.7 116.1 78.3 33.6 33.6 59.9 72.6 78.3 116.1 19 45 28.7 92.8 28.7 142.1s-9.6 97.2-28.7 142.1c-18.4 43.5-44.7 82.5-78.3 116.1-15.4 15.4-31.9 29.2-49.5 41.5h-72.2c.9-3.8 1.4-7.8 1.4-11.9 0-28.7-23.3-52-52-52H564v-29.3c45.7-9.8 87.1-32.4 120.6-66 46.1-46.1 71.5-107.4 71.5-172.6v-12.2H769c28.7 0 52-23.3 52-52s-23.3-52-52-52h-12.9v-43.9c0-27.6-14.4-65.9-83.2-91.5-42.1-15.7-99.2-24.4-160.8-24.4s-118.7 8.7-160.8 24.4c-68.8 25.7-83.2 63.9-83.2 91.5v43.9h-12c-28.7 0-52 23.3-52 52s23.3 52 52 52h12v12.3c0 65.2 25.4 126.4 71.5 172.5 33.5 33.5 74.9 56.1 120.5 65.9v29.3h-33.9c-28.7 0-52 23.3-52 52s23.3 52 52 52H598c16.7 0 31.5-7.9 41-20.1h49.7c-11.2 6.2-22.7 11.8-34.5 16.8-45 19-92.8 28.7-142.1 28.7s-97.2-9.6-142.1-28.7c-26-11-50.7-25-73.4-41.6-9-6.6-19.7-10.1-30.8-10.1-13.9 0-26.9 5.4-36.8 15.2-10.8 10.8-16.3 25.6-15.1 40.8 1.2 15.1 8.8 28.9 21 37.8 80.8 59.2 176.6 90.5 277.1 90.5h.3c64.1 0 126.2-12.7 184.5-37.6 56.3-24 106.7-58.4 149.8-102.2 43.1-43.8 76.7-94.7 99.9-151.4 23.9-58.6 35.6-120.9 34.6-185zm-469-173.1c-38.6 0-75.9-4.2-105.3-11.9 29.4-7.7 66.7-11.9 105.3-11.9s75.9 4.2 105.3 11.9c-29.4 7.7-66.7 11.9-105.3 11.9zm-118 201.3c16.5 0 30-13.5 30-30v-73.6c27.5 4.2 57.5 6.3 88 6.3 52.2 0 100.8-6.1 140-17.5V480c0 77.2-62.8 140.1-140.1 140.1-59.5 0-110.5-37.3-130.7-89.8 3.9 1.8 8.2 2.8 12.8 2.8z"/><path d="M288.1 447.8v32.3c0 59.8 23.3 116.1 65.6 158.4 34.7 34.7 78.7 56.5 126.3 63.3v66h-53.9c-17.7 0-32 14.3-32 32s14.3 32 32 32h171.8c17.7 0 32-14.3 32-32s-14.3-32-32-32H544v-66c47.7-6.8 91.8-28.7 126.5-63.4 42.3-42.3 65.6-98.6 65.6-158.4v-32.2H769c17.7 0 32-14.3 32-32s-14.3-32-32-32h-32.9v-64c0-66.3-112.5-95.9-224-95.9s-224 29.7-224 95.9v64h-32c-17.7 0-32 14.3-32 32s14.3 32 32 32h32zm224 192.3c-88.2 0-160-71.8-160-160v-89.8c9.9 4 20.6 7.5 32 10.6v102.2c0 5.5 4.5 10 10 10s10-4.5 10-10v-97.5c33.3 6.9 70.7 10.2 108 10.2 58.5 0 117.4-8.2 160-25.5V480c0 88.2-71.8 160.1-160 160.1zM398.3 301.4c31.6-8.7 72-13.5 113.8-13.5s82.2 4.8 113.8 13.5C650 308 663 315.2 669 319.8c-6 4.6-19 11.8-43.1 18.4-31.6 8.7-72 13.5-113.8 13.5s-82.2-4.8-113.8-13.5c-24.1-6.6-37.1-13.8-43.1-18.4 6-4.5 19-11.7 43.1-18.4z"/><path d="M961.1 505.2C957.5 262.5 761.5 66.5 518.8 62.9c-251.2-3.7-455.9 197.7-456 448.9-.1 99.3 32.1 191.1 86.7 265.5 11.6 15.8 34.5 17.4 48.4 3.6 11.2-11.2 12.5-28.8 3.1-41.6-17.6-24-32.3-49.8-43.9-77.4C137 614.5 126.8 564 126.8 512S137 409.5 157 362.1c19.4-45.9 47.2-87.1 82.6-122.5 35.4-35.4 76.6-63.2 122.5-82.6 47.4-20 97.9-30.2 149.9-30.2S614.5 137 661.9 157c45.9 19.4 87.1 47.2 122.5 82.6 35.4 35.4 63.2 76.6 82.6 122.5 20 47.4 30.2 97.9 30.2 149.9S887 614.5 866.9 661.9c-19.4 45.9-47.2 87.1-82.6 122.5-35.4 35.4-76.6 63.2-122.5 82.6-47.3 20-97.8 30.2-149.8 30.2-52 0-102.5-10.2-149.9-30.2-27.6-11.7-53.5-26.4-77.4-43.9-12.8-9.4-30.4-8-41.6 3.1-13.8 13.8-12.2 36.8 3.6 48.4 74.4 54.5 166.2 86.7 265.5 86.7 251.3-.2 452.7-204.9 448.9-456.1z"/></svg>