<svg class="icon" viewBox="0 0 1024 1024" xmlns="http://www.w3.org/2000/svg" width="256" height="256"><defs><style/></defs><path d="M421.953 119.715h191.004c8.71 0 16.637 3.57 22.387 9.318l.05.05c5.747 5.75 9.318 13.677 9.318 22.387v29.817c0 8.743-3.57 16.688-9.318 22.435-5.75 5.75-13.694 9.32-22.437 9.32H421.953c-8.743 0-16.687-3.57-22.437-9.32-5.747-5.747-9.318-13.692-9.318-22.435V151.47c0-8.71 3.571-16.637 9.318-22.386l.05-.05c5.75-5.748 13.678-9.32 22.387-9.32zm191.004 26.274H421.953c-1.515 0-2.891.61-3.887 1.594a5.523 5.523 0 0 0-1.594 3.887v29.817c0 1.495.622 2.865 1.618 3.862a5.466 5.466 0 0 0 3.863 1.62h191.004a5.466 5.466 0 0 0 3.863-1.62 5.464 5.464 0 0 0 1.618-3.862V151.47c0-1.515-.61-2.891-1.593-3.887a5.523 5.523 0 0 0-3.888-1.594z"/><path d="M692.345 187.554c-10.882 0-19.705-8.823-19.705-19.706s8.823-19.705 19.705-19.705H801.44c25.918 0 49.47 10.592 66.528 27.65 17.06 17.062 27.65 40.614 27.65 66.528v579.502c0 25.919-10.592 49.47-27.65 66.529-17.058 17.058-40.61 27.65-66.528 27.65H221.938c-25.918 0-49.47-10.592-66.528-27.65-17.058-17.058-27.65-40.61-27.65-66.529V242.321c0-25.918 10.592-49.47 27.65-66.528 17.058-17.058 40.61-27.65 66.528-27.65h122.3c10.881 0 19.705 8.823 19.705 19.705s-8.824 19.706-19.706 19.706H221.938c-15.04 0-28.73 6.168-38.664 16.103-9.935 9.935-16.103 23.624-16.103 38.664v579.502c0 15.04 6.168 28.73 16.103 38.665 9.934 9.934 23.624 16.103 38.664 16.103H801.44c15.04 0 28.73-6.169 38.664-16.103 9.935-9.935 16.103-23.625 16.103-38.665V242.321c0-15.038-6.168-28.73-16.103-38.664-9.934-9.935-23.624-16.103-38.664-16.103H692.345z"/><path d="M271.723 407.133c-7.254 0-13.137-5.883-13.137-13.137s5.883-13.137 13.137-13.137h191.715c7.254 0 13.137 5.883 13.137 13.137s-5.883 13.137-13.137 13.137H271.723zm256.248 4.1c4.796 0 9.108-1.91 12.193-4.997v-.05a17.19 17.19 0 0 0 5.047-12.194c0-4.796-1.91-9.108-4.997-12.193l-.05-.05c-3.085-3.087-7.397-4.997-12.193-4.997a17.19 17.19 0 0 0-12.193 5.047h-.05c-3.088 3.085-4.998 7.397-4.998 12.193a17.19 17.19 0 0 0 5.048 12.193 17.19 17.19 0 0 0 12.193 5.048zm30.74 13.5c-7.9 7.89-18.773 12.774-30.74 12.774-12.01 0-22.891-4.873-30.767-12.748s-12.748-18.756-12.748-30.767c0-11.967 4.884-22.84 12.774-30.74l-.026-.026c7.876-7.876 18.756-12.748 30.767-12.748 11.954 0 22.816 4.872 30.716 12.748l.05.05c7.876 7.9 12.748 18.762 12.748 30.716 0 12.011-4.872 22.891-12.748 30.767l-.026-.026zm39.776-17.6c-7.254 0-13.137-5.883-13.137-13.137s5.883-13.137 13.137-13.137h153.168c7.254 0 13.137 5.883 13.137 13.137s-5.883 13.137-13.137 13.137H598.487zm-326.764 138.08c-7.254 0-13.137-5.883-13.137-13.137s5.883-13.137 13.137-13.137h69.427c7.254 0 13.137 5.883 13.137 13.137s-5.883 13.137-13.137 13.137h-69.427zm134.757 4.1a17.19 17.19 0 0 0 12.193-5.048h.05c3.087-3.085 4.997-7.397 4.997-12.193a17.19 17.19 0 0 0-5.047-12.193 17.19 17.19 0 0 0-12.193-5.047c-4.796 0-9.108 1.91-12.193 4.997v.05a17.19 17.19 0 0 0-5.048 12.193c0 4.796 1.91 9.108 4.997 12.193l.05.05c3.086 3.087 7.398 4.998 12.194 4.998zm30.74 13.5l.026.026c-7.875 7.875-18.756 12.748-30.766 12.748-11.955 0-22.817-4.873-30.717-12.748l-.05-.05c-7.875-7.9-12.748-18.762-12.748-30.717 0-12.01 4.873-22.89 12.748-30.766l.026.026c7.9-7.89 18.773-12.774 30.74-12.774 12.011 0 22.892 4.872 30.767 12.748s12.748 18.756 12.748 30.766c0 11.968-4.884 22.841-12.774 30.74zm35.702-17.6c-7.253 0-13.137-5.883-13.137-13.137s5.884-13.137 13.137-13.137h278.733c7.254 0 13.137 5.883 13.137 13.137s-5.883 13.137-13.137 13.137H472.922zm278.733 111.798c7.254 0 13.137 5.884 13.137 13.137s-5.883 13.137-13.137 13.137h-69.427c-7.254 0-13.137-5.883-13.137-13.137s5.883-13.137 13.137-13.137h69.427zm-134.756-4.1a17.19 17.19 0 0 0-12.193 5.048h-.05c-3.088 3.085-4.998 7.397-4.998 12.193a17.19 17.19 0 0 0 5.048 12.193 17.19 17.19 0 0 0 12.193 5.048c4.796 0 9.108-1.91 12.193-4.998v-.05a17.19 17.19 0 0 0 5.047-12.193c0-4.796-1.91-9.108-4.997-12.193l-.05-.05c-3.085-3.087-7.397-4.997-12.193-4.997zm-30.74-13.5l-.027-.025c7.876-7.876 18.756-12.748 30.767-12.748 11.954 0 22.816 4.872 30.716 12.748l.05.05c7.876 7.9 12.748 18.761 12.748 30.716 0 12.01-4.872 22.891-12.748 30.767l-.026-.026c-7.9 7.89-18.773 12.774-30.74 12.774-12.011 0-22.891-4.873-30.767-12.748s-12.748-18.756-12.748-30.767c0-11.968 4.884-22.84 12.774-30.74zm-35.703 17.6c7.253 0 13.137 5.884 13.137 13.137s-5.884 13.137-13.137 13.137H271.723c-7.254 0-13.137-5.883-13.137-13.137s5.883-13.137 13.137-13.137h278.733z"/></svg>