<svg class="icon" viewBox="0 0 1030 1024" xmlns="http://www.w3.org/2000/svg" width="200" height="200"><path d="M478.469 722.217a33.531 33.531 0 1 0 67.062 0 33.531 33.531 0 1 0-67.062 0zm0 116.07a33.531 33.531 0 1 0 67.062 0 33.531 33.531 0 1 0-67.062 0z"/><path d="M515.869 188.292c-112.201 0-203.768 91.567-203.768 205.058 0 73.511 38.69 137.995 96.725 174.106-137.995 49.007-242.458 189.582-242.458 344.342 0 14.187 11.607 25.794 25.793 25.794s25.794-11.607 25.794-25.794c0-159.919 130.257-299.204 283.728-312.1 5.158 0 7.738-1.29 12.896-1.29s7.738 0 11.607-1.29c107.043-3.869 193.451-94.146 193.451-203.768 0-113.491-91.566-205.058-203.768-205.058zm0 358.53h-6.448c-81.25-3.87-145.733-70.933-145.733-153.472 0-85.118 68.352-153.47 152.181-153.47S668.05 308.231 668.05 393.35c0 83.829-68.352 153.471-152.181 153.471z"/><path d="M220.534 469.44c10.317 0 19.345-6.448 24.504-16.765 5.158-12.897-1.29-28.373-14.187-33.531-50.297-20.635-83.828-68.353-83.828-123.809 0-73.511 59.325-132.836 131.546-132.836 30.952 0 60.615 10.317 83.829 30.952 10.317 9.028 27.083 7.738 36.11-3.87 9.029-10.317 7.739-27.082-3.868-36.11-32.242-27.083-74.801-42.56-117.36-42.56-100.595 0-183.134 82.54-183.134 184.424 0 76.09 45.139 143.154 116.07 171.526 3.87 1.29 6.449 2.58 10.318 2.58zM709.32 651.285c-10.317 10.317-10.317 25.793 0 36.11 67.063 68.353 100.594 143.154 100.594 223.114 0 14.186 11.607 25.793 25.794 25.793S861.5 924.695 861.5 910.51c0-94.146-38.69-181.844-116.07-259.224-10.318-10.318-25.794-10.318-36.111 0zM98.015 527.476C36.111 595.83 0 684.816 0 773.804c0 14.186 11.607 25.793 25.793 25.793s25.794-11.607 25.794-25.793c0-76.091 30.952-152.182 83.829-211.507 9.027-10.317 9.027-27.083-1.29-36.11-10.317-10.318-27.083-9.028-36.11 1.29zm755.748-76.091c51.587-33.531 83.829-90.277 83.829-154.76 0-101.884-82.54-184.423-184.423-184.423-45.139 0-87.698 16.765-121.23 46.428-10.317 9.027-11.607 25.793-2.579 36.11 9.028 10.318 25.794 11.608 36.111 2.58 24.504-20.635 55.456-33.532 87.698-33.532 73.511 0 132.836 59.325 132.836 132.837 0 56.745-36.11 107.043-88.987 126.388-10.318 2.579-24.504 5.158-28.373 16.765-5.159 12.897 1.29 27.083 14.186 32.242 112.202 49.008 190.872 167.658 190.872 288.887 0 14.186 11.607 25.793 25.793 25.793s25.794-11.607 25.794-25.793c-1.29-123.809-69.643-242.459-171.527-309.522z"/></svg>