<svg class="icon" viewBox="0 0 1024 1024" xmlns="http://www.w3.org/2000/svg" width="200" height="200"><path d="M512 752c-5.1 0-10.4-1.2-15.2-3.9l-384-208c-15.5-8.4-21.3-27.8-12.9-43.4 8.4-15.5 27.8-21.3 43.4-12.9l384 208c15.5 8.4 21.3 27.8 12.9 43.4-5.9 10.7-16.9 16.8-28.2 16.8z"/><path d="M512 752c-11.4 0-22.4-6.1-28.2-16.8-8.4-15.5-2.6-35 12.9-43.4l385-208c15.5-8.4 35-2.6 43.4 12.9 8.4 15.5 2.6 35-12.9 43.4l-385 208c-4.8 2.7-10 3.9-15.2 3.9zm0 208c-5.1 0-10.4-1.2-15.2-3.9l-384-208c-15.5-8.4-21.3-27.8-12.9-43.4 8.4-15.5 27.8-21.3 43.4-12.9l384 208c15.5 8.4 21.3 27.8 12.9 43.4-5.9 10.7-16.9 16.8-28.2 16.8z"/><path d="M512 960c-11.4 0-22.4-6.1-28.2-16.8-8.4-15.5-2.6-35 12.9-43.4l385-208c15.5-8.4 35-2.6 43.4 12.9 8.4 15.5 2.6 35-12.9 43.4l-385 208c-4.8 2.7-10 3.9-15.2 3.9zM128 328c-11.6 0-22.7-6.3-28.4-17.2-8.2-15.7-2.1-35 13.6-43.2l384-200c15.7-8.2 35-2.1 43.2 13.6 8.2 15.7 2.1 35-13.6 43.2l-384 200c-4.7 2.4-9.8 3.6-14.8 3.6z"/><path d="M897 328c-5 0-10-1.2-14.7-3.6l-385-200c-15.7-8.1-21.8-27.5-13.6-43.1 8.1-15.7 27.5-21.8 43.1-13.6l385 200c15.7 8.1 21.8 27.5 13.6 43.1-5.7 10.9-16.9 17.2-28.4 17.2zM512 536c-5.1 0-10.4-1.2-15.2-3.9l-384-208c-15.5-8.4-21.3-27.8-12.9-43.4s27.8-21.3 43.4-12.9l384 208c15.5 8.4 21.3 27.8 12.9 43.4-5.9 10.7-16.9 16.8-28.2 16.8z"/><path d="M512 536c-11.4 0-22.4-6.1-28.2-16.8-8.4-15.5-2.6-35 12.9-43.4l385-208c15.5-8.4 35-2.6 43.4 12.9 8.4 15.5 2.6 35-12.9 43.4l-385 208c-4.8 2.7-10 3.9-15.2 3.9z"/></svg>