<svg class="icon" viewBox="0 0 1024 1024" xmlns="http://www.w3.org/2000/svg" width="32" height="32"><path d="M512 959.846c-247.244 0-447.674-200.505-447.674-447.844S264.755 64.154 512 64.154s447.674 200.508 447.674 447.847S759.244 959.846 512 959.846zm0-835.978c-214.277 0-387.984 173.772-387.984 388.134 0 214.358 173.706 388.134 387.984 388.134S899.984 726.36 899.984 512.002c0-214.362-173.707-388.134-387.984-388.134zm119.38 537.415h-89.535v89.582c0 16.484-13.362 29.842-29.845 29.842-16.483 0-29.845-13.358-29.845-29.842v-89.582H392.62c-16.483 0-29.845-13.361-29.845-29.845v-.024c0-16.484 13.362-29.842 29.845-29.842h89.535v-59.714H392.62c-16.483 0-29.845-13.361-29.845-29.845v-.023c0-16.484 13.362-29.845 29.845-29.845h76.922l-87.845-152.213c-8.242-14.278-3.351-32.54 10.923-40.786 14.275-8.242 32.528-3.348 40.769 10.93l81.626 141.432c.426-.935.448-1.947.984-2.853l89.535-151.094c8.24-13.907 26.494-18.674 40.769-10.645 14.275 8.034 19.166 25.816 10.923 39.724L567.69 467.733c-8.24 13.908-26.493 18.671-40.768 10.642-.782-.442-1.224-1.179-1.95-1.677-.465 1.811-.384 3.731-1.152 5.447h107.558c16.483 0 29.845 13.361 29.845 29.845v.023c0 16.484-13.362 29.845-29.845 29.845h-89.533v59.714h89.535c16.483 0 29.845 13.358 29.845 29.842v.023c0 16.484-13.362 29.846-29.845 29.846z"/></svg>