<svg class="icon" viewBox="0 0 1024 1024" xmlns="http://www.w3.org/2000/svg" width="32" height="32"><path d="M183.087 915.496c-33.281-8.961-62.719-37.203-74.961-71.922-5.359-15.199-6.238-61.199-6.238-331.758 0-351.203-1.203-336 29.039-370.32 8.879-10.082 24.879-22.563 35.519-27.84l19.442-9.442h598.558l24.321 12.399c18.801 9.601 28 17.84 40.64 36.242l16.399 23.758 1.359 58.723c1.52 67.757-.719 75.679-21.68 75.679-22.64 0-26.718-10.082-26.718-65.84 0-52.242-4.321-64.242-30-83.281-11.602-8.48-13.922-8.558-301.121-8.558-283.118 0-289.84.16-303.84 8.32-8.481 4.879-18.078 15.68-23.52 26.48l-9.281 18.078v610.879l9.203 18.161c16.238 32 24.559 34.48 125.117 36.8 94.403 2.239 94.883 2.321 95.043 25.36.16 21.441-9.683 23.84-98.16 23.519-50.562-.16-87.043-2.16-99.121-5.437zm705.121 2.879c-3.363-1.2-32.961-28.801-65.762-61.36l-59.679-59.121-35.282 22.16c-20.48 12.879-50.398 27.121-71.437 34-33.203 10.879-40.961 11.84-95.52 11.762-55.921-.082-61.523-.883-95.281-12.801-50.879-18.082-77.922-35.281-117.679-75.199-39.282-39.363-60.723-73.043-76.801-120.801-10-29.761-11.039-38.402-11.039-94.242s1.039-64.398 11.039-94.238c16.078-47.762 37.441-81.36 76.801-120.879 39.277-39.363 72.64-60.563 120.8-76.641 29.68-9.922 38.477-10.961 94.239-10.961 55.761 0 64.48 1.039 94.238 10.961 48.242 16.16 81.601 37.278 120.801 76.719 59.839 60.16 85.922 118.559 89.281 199.68 2.961 72.562-12 128.16-49.602 184.402l-20.238 30.32 62 62.399c40.481 40.801 62 65.441 62 71.039 0 4.719-4.879 12.48-10.801 17.121-11.441 8.961-12.238 9.199-22.078 5.68zm-272.32-105.68c85.918-18 156.32-79.922 188.64-165.922 10.317-27.437 11.52-36.16 11.84-81.918.239-45.84-.883-54.719-11.203-84.719-20.797-60.562-65.359-112.8-121.199-142.16-38.719-20.32-61.359-26.883-102.801-29.84-49.918-3.523-87.519 3.84-131.359 25.84-43.36 21.68-74.559 49.117-101.278 89.039-29.843 44.559-39.761 79.438-39.761 139.758 0 43.203 1.359 53.203 11.519 82.641 21.68 63.121 67.602 115.359 127.199 144.879 55.122 27.281 110.243 34.562 168.403 22.402zm-66.723-53.52c-10.558-7.441-12.32-26.722-3.199-35.839 3.281-3.282 16.562-7.282 29.602-8.883 36.558-4.559 64.48-16.957 89.199-39.52 27.199-24.879 41.84-53.437 49.199-95.84 5.922-34.238 9.922-39.437 28.641-37.839 20.078 1.761 25.519 16.562 19.441 53.039-13.84 82.8-75.441 148.32-155.363 165.281-35.598 7.519-46.317 7.441-57.52-.399zM385.247 511.496c-11.519-10.723-11.281-16 1.68-41.602 19.918-39.281 77.039-89.121 102.398-89.281 12.321-.078 23.043 13.441 21.442 27.203-1.039 8.797-6.719 15.117-24.481 26.797-23.918 15.762-46.558 40.562-58.32 63.601-11.199 22.079-27.68 27.2-42.719 13.282zm0 0"/></svg>