<svg class="icon" viewBox="0 0 1088 1024" xmlns="http://www.w3.org/2000/svg" width="32" height="32"><path d="M920.832 503.68c22.016 0 39.936 17.92 39.936 39.936 0 264.96-215.552 480.384-480.384 480.384C215.488 1024 0 808.576 0 543.616 0 278.784 215.488 63.36 480.384 63.36c22.016 0 39.936 17.92 39.936 39.936V503.68h400.512zM480.384 944.128c207.36 0 378.24-158.4 398.4-360.576h-398.4a39.936 39.936 0 0 1-39.936-39.936V145.28C238.272 165.312 79.872 336.32 79.872 543.616a400.96 400.96 0 0 0 400.512 400.512zm540.16-501.696c-1.28 2.24-2.56 4.352-4.16 6.208-1.728 1.92-3.712 3.456-5.76 4.992-1.984 1.536-3.904 3.072-6.272 4.224-2.368 1.216-4.928 1.792-7.488 2.496-1.856.512-3.328 1.536-5.184 1.728a39.04 39.04 0 0 1-4.928.32h-385.28a39.936 39.936 0 0 1-39.872-39.936V39.936c0-.768.384-1.408.448-2.24 0-.832-.32-1.536-.192-2.368.192-1.984 1.28-3.52 1.792-5.376.64-2.624 1.28-5.184 2.432-7.616 1.152-2.176 2.624-4.096 4.16-6.08 1.6-2.112 3.072-4.16 5.12-5.952 1.92-1.6 3.968-2.816 6.144-4.096 2.24-1.28 4.352-2.624 6.72-3.52 2.56-.96 5.312-1.216 8.064-1.6C598.08.832 599.68 0 601.6 0c.768 0 1.472.448 2.24.448.832.064 1.6-.32 2.368-.192a478.528 478.528 0 0 1 420.224 417.28c.064.896-.32 1.664-.192 2.56 0 .768.512 1.472.512 2.368 0 1.92-.896 3.584-1.152 5.504-.384 2.56-.64 5.12-1.536 7.68a40.96 40.96 0 0 1-3.456 6.784zM937.6 382.528a396.8 396.8 0 0 0-296.128-293.76v293.76H937.6z"/></svg>