<svg class="icon" viewBox="0 0 1024 1024" xmlns="http://www.w3.org/2000/svg" width="32" height="32"><path d="M829.44 957.44H194.56c-40.96 0-74.24-33.28-74.24-74.24V181.76c0-5.632 2.048-11.264 5.632-15.36 21.504-24.064 95.744-102.912 145.408-99.84 27.136 1.536 50.688 26.624 75.776 53.248 12.8 13.824 36.864 38.912 46.08 38.912 10.752-.512 28.16-22.016 40.96-37.888 20.992-25.6 45.056-55.296 77.824-54.272 29.696.512 55.808 26.112 83.456 52.736 16.384 16.384 39.424 38.4 51.2 39.424 8.192.512 31.232-25.6 42.496-38.4 22.528-26.112 46.08-53.248 75.264-54.272 50.176-1.536 115.2 76.8 134.144 100.864 3.072 4.096 5.12 9.216 5.12 14.336v701.44c0 41.472-33.28 74.752-74.24 74.752zM166.4 190.464V883.2c0 15.36 12.8 28.16 28.16 28.16h634.88c15.36 0 28.16-12.8 28.16-28.16V189.952c-30.72-37.888-73.728-77.312-91.136-77.312h-.512c-9.216.512-29.696 24.064-41.984 38.4-24.064 27.648-49.152 56.32-80.896 53.76-28.16-2.56-53.248-26.624-79.36-52.224-16.896-16.896-40.448-39.424-52.224-39.936-10.24 0-28.16 21.504-40.96 37.376-21.504 26.112-43.52 53.76-75.264 54.784-29.696 1.024-54.272-25.6-80.896-53.76-13.312-14.336-35.84-37.888-45.056-38.4-17.92-1.024-66.56 38.912-102.912 77.824z"/><path d="M555.008 429.568h57.856c12.288 0 19.456-7.168 19.456-19.456 0-11.776-7.168-18.944-19.456-18.944h-33.792l50.688-78.848c2.048-4.096 3.584-7.68 3.584-11.264 0-5.632-1.536-13.312-11.776-18.944-4.096-3.072-9.216-4.608-13.824-4.608-8.192 0-14.848 4.096-18.432 11.264l-66.56 110.592-67.072-111.104c-5.632-9.216-12.8-11.264-18.432-11.264h-.512c-4.096.512-8.704 1.536-12.288 3.584-8.192 4.096-12.8 11.264-12.8 19.456 0 4.096 1.024 8.192 3.584 11.264l50.688 79.36h-33.28c-11.776 0-19.456 7.168-19.456 19.456 0 11.776 7.168 19.456 19.456 19.456h57.344l9.728 14.848v6.144H432.64c-6.144 0-10.752 1.536-14.336 4.608-3.584 3.072-5.12 8.192-5.12 13.824 0 11.776 7.168 19.456 19.456 19.456h67.072v52.736c0 13.824 8.704 21.504 23.04 21.504s23.04-8.192 23.04-21.504v-52.736h67.072c11.776 0 19.456-7.168 19.456-19.456 0-11.776-7.168-18.432-19.456-18.432h-67.072v-6.144l9.216-14.848zM692.736 668.16h-332.8c-12.8 0-23.04-10.24-23.04-23.04s10.24-23.04 23.04-23.04h332.8c12.8 0 23.04 10.24 23.04 23.04s-10.752 23.04-23.04 23.04zM691.2 798.72H358.4c-12.8 0-23.04-10.24-23.04-23.04s10.24-23.04 23.04-23.04h332.8c12.8 0 23.04 10.24 23.04 23.04S704 798.72 691.2 798.72z"/></svg>