<svg class="icon" viewBox="0 0 1024 1024" xmlns="http://www.w3.org/2000/svg" width="32" height="32"><path d="M355.2 652.096h37.504a8.96 8.96 0 0 0 9.024-9.024V608.64c32.512-2.304 54.208-11.776 71.424-26.752 30.08-26.24 41.408-66.24 29.184-102.144-13.632-39.36-67.456-61.248-106.752-77.312l-6.4-2.56c-12.8-5.888-31.744-13.824-37.376-16.192 0 0-2.432-1.088-2.624-1.088-13.632-6.208-22.72-10.304-29.568-21.312-8.064-13.12-6.08-32.512 4.352-41.6a72.32 72.32 0 0 1 47.936-16.896c10.24 0 21.056 1.856 31.232 5.248 8.896 3.008 22.72 12.416 31.808 20.224 1.28 1.024 2.368 2.176 3.648 3.392l1.024 1.088c.576.704 1.152 1.408 1.6 2.176a21.696 21.696 0 0 0 18.944 10.496c13.44 0 26.432-10.56 32.384-20.992 5.12-9.216 5.44-18.752.64-26.304-14.4-22.592-47.232-41.344-72.32-48.064-8.128-2.24-10.56-3.904-19.2-4.864V208.32a9.088 9.088 0 0 0-9.152-8.96l-37.312.192a9.088 9.088 0 0 0-9.088 8.96V246.4c-28.096 4.672-52.992 16.128-70.72 32.896-29.824 28.288-38.272 70.592-20.928 105.408 8.384 16.832 21.504 30.528 36.992 38.528 12.096 6.336 70.464 33.6 98.496 46.72l13.888 6.528c12.224 5.76 22.08 13.824 26.368 21.504 7.488 13.376 4.16 32-7.36 41.28-8.96 7.168-22.528 10.944-39.36 10.944-14.976 0-32.64-3.072-48.448-8.448a111.808 111.808 0 0 1-31.296-18.24c-1.28-1.024-2.368-2.176-3.648-3.392l-.704-.64-.32-.448a9.728 9.728 0 0 1-1.664-2.24 21.824 21.824 0 0 0-18.944-10.432c-13.504 0-26.496 10.56-32.384 20.992-5.184 9.216-5.44 18.816-.704 26.176 19.008 29.888 60.032 46.72 100.736 52.8v36.736c0 4.992 4.16 9.024 9.088 9.024zm229.056 243.2l17.088 13.568c3.392 3.456 6.784 3.456 10.112 3.456 3.456 0 10.112-3.456 10.112-6.848 37.504-44.16 61.248-102.08 68.032-173.568h234.752v115.712c0 10.176-3.456 10.176-6.848 10.176h-74.752c-6.848 0-10.176 3.392-13.568 6.784-3.52 3.456-3.52 10.176-3.52 13.568l6.848 17.024a18.624 18.624 0 0 0 17.024 10.176h74.816c33.984 0 51.072-20.416 51.072-54.464V425.792c0-10.176-6.848-17.024-17.088-17.024H655.68c-10.176 0-17.088 6.848-17.088 17.024v265.344c0 74.752-20.352 132.672-57.856 180.224a21.248 21.248 0 0 0 3.52 23.936zm112.256-435.392h231.296v85.056H696.512v-85.056zm0 136.064h231.296v85.056H696.512v-85.056zm0 0"/><path d="M455.808 1024c8 0 15.68-3.2 21.312-8.896a29.76 29.76 0 0 0 0-42.496 30.08 30.08 0 0 0-21.312-8.896H170.944c-37.76 0-62.144-36.288-62.144-71.616V131.84c0-35.264 24.384-71.616 62.144-71.616h599.552c37.824 0 62.208 36.352 62.208 71.616v88.256a29.952 29.952 0 0 0 30.144 30.08 30.144 30.144 0 0 0 30.08-30.08V131.84C892.928 63.296 841.792 0 770.56 0H170.944C99.712 0 48.576 63.296 48.576 131.84v760.32c0 68.544 51.136 131.84 122.368 131.84h284.864z"/></svg>