<svg class="icon" viewBox="0 0 1024 1024" xmlns="http://www.w3.org/2000/svg" width="200" height="200"><path d="M1006.27 937.53a13.997 13.997 0 0 1-14.516 5.288l-99.18-23.037-34.13 94.597a14.95 14.95 0 0 1-12.629 9.621h-1.514a14.163 14.163 0 0 1-12.628-7.548l-100.507-185.4c-16.961 1.701-27.143 1.515-44.872-.372l-99.926 184.818a14.308 14.308 0 0 1-13.001 7.569h-1.14a14.557 14.557 0 0 1-12.256-9.642l-33.737-94.95-99.387 22.457a14.743 14.743 0 0 1-14.702-5.474 14.702 14.702 0 0 1-1.12-15.863l113.695-205.97-.954-2.073a202.9 202.9 0 0 1-17.915-84.022c.186-112.7 91.652-203.875 204.206-203.875h.934c113.134.374 204.393 92.316 203.833 205.389 0 29.652-6.594 57.21-18.662 84.208l111.62 208.416c2.448 5.102 2.074 11.343-1.513 15.863zM563.558 765.174l-58.082 104.405 45.267-10.202a4.997 4.997 0 0 1 5.827 3.214l15.282 43.027 52.98-96.65c-25.07-13.79-41.098-23.224-61.274-43.794zM710.43 489.532h-.56A137.852 137.852 0 0 0 572.04 626.97c-.374 76.08 61.274 138.392 137.27 138.765A138.267 138.267 0 0 0 847.703 628.11a137.976 137.976 0 0 0-137.271-138.578zm146.52 275.455c-23.39 23.411-42.426 34.733-71.104 50.596l60.715 111.745 17.542-49.081a6.947 6.947 0 0 1 7.921-4.334l51.467 11.695-66.542-120.62zm-664.087-53.436h246.259v64.385h-246.26V711.55zm0-113.653V533.7h246.259v64.198h-246.26zm0-420.047h505.498v64.365H192.864V177.85zm0 177.831h360.14v64.385h-360.14v-64.385zM849.402 63.991H78.61v825.411h276.036v64.178H83.129c-37.697 0-68.635-31.705-68.635-70.979V70.98C14.494 31.912 45.245 0 83.129 0h761.732c37.719 0 68.636 31.705 68.636 70.979v303.386h-64.095V63.991z"/></svg>